<svg width="302" height="134" viewBox="0 0 302 134" fill="none" xmlns="http://www.w3.org/2000/svg">
<path d="M290.966 126.629C248.673 104.878 270.085 63.9648 237.546 74.3768C205.765 84.5458 170.129 147.171 241.422 119.379C320.816 88.4288 293.382 61.3768 274.165 68.1418" stroke="url(#paint0_linear_515_12232)" stroke-width="14" stroke-linecap="round"/>
<path d="M142.337 101.252L217.366 60.37C207.364 62.951 192.823 71.668 185.032 57.644C183.473 61.929 178.019 80.2381 174.124 89.9771C166.431 109.208 159.89 126.114 165.296 126.628C169.853 127.06 191.88 130.253 202.755 106.086" stroke="url(#paint1_linear_515_12232)" stroke-width="14" stroke-linecap="round" stroke-linejoin="round"/>
<path d="M118.17 79.501C118.17 79.501 127.902 79.669 131.948 78.293C136.78 76.65 145.24 69.834 145.24 69.834C118.169 98.835 104.878 133.16 112.128 125.419C113.682 123.76 116.082 108.502 142.337 101.252" stroke="url(#paint2_linear_515_12232)" stroke-width="14" stroke-linecap="round" stroke-linejoin="round"/>
<path d="M164.088 46.877C164.088 51.549 160.301 55.336 155.629 55.336C150.958 55.336 147.171 51.549 147.171 46.877C147.171 42.205 150.958 38.4185 155.629 38.4185C160.301 38.4185 164.088 42.205 164.088 46.877Z" fill="url(#paint3_linear_515_12232)"/>
<path d="M7 41.096C23.937 20.302 57.643 -12.5785 56.971 22.2558C56.131 65.799 -8.0823 149.475 45.668 120.586C88.668 97.475 111.141 54.494 117.439 35.2348C120.099 40.957 102.461 69.835 118.17 79.502" stroke="url(#paint4_linear_515_12232)" stroke-width="14" stroke-linecap="round" stroke-linejoin="round"/>
<defs>
<linearGradient id="paint0_linear_515_12232" x1="247.379" y1="67.0948" x2="247.379" y2="126.629" gradientUnits="userSpaceOnUse">
<stop stop-color="#66E5FF"/>
<stop offset="1" stop-color="#2D19FF"/>
</linearGradient>
<linearGradient id="paint1_linear_515_12232" x1="179.851" y1="57.644" x2="179.851" y2="127" gradientUnits="userSpaceOnUse">
<stop stop-color="#66E5FF"/>
<stop offset="1" stop-color="#2D19FF"/>
</linearGradient>
<linearGradient id="paint2_linear_515_12232" x1="127.705" y1="69.834" x2="127.705" y2="126.528" gradientUnits="userSpaceOnUse">
<stop stop-color="#66E5FF"/>
<stop offset="1" stop-color="#2D19FF"/>
</linearGradient>
<linearGradient id="paint3_linear_515_12232" x1="151.5" y1="40.5" x2="166.5" y2="88.4999" gradientUnits="userSpaceOnUse">
<stop stop-color="#66E5FF"/>
<stop offset="1" stop-color="#2D19FF"/>
</linearGradient>
<linearGradient id="paint4_linear_515_12232" x1="62.585" y1="7.00002" x2="62.585" y2="126.521" gradientUnits="userSpaceOnUse">
<stop stop-color="#66E5FF"/>
<stop offset="1" stop-color="#2D19FF"/>
</linearGradient>
</defs>
</svg>
